<svg xmlns="http://www.w3.org/2000/svg" xmlns:xlink="http://www.w3.org/1999/xlink" width="2179" height="648" viewBox="0 0 2179 648">
  <defs>
    <clipPath id="clip-logo_realms">
      <rect width="2179" height="648"/>
    </clipPath>
  </defs>
  <g id="logo_realms" data-name="logo realms" clip-path="url(#clip-logo_realms)">
    <g id="Grupo_6622" data-name="Grupo 6622" transform="translate(-816.849 -5288.652)">
      <g id="Grupo_1" data-name="Grupo 1" transform="translate(2420.438 5572.479)">
        <circle id="Elipse_13" data-name="Elipse 13" cx="26.988" cy="26.988" r="26.988" transform="translate(0 10.871)" fill="#00327e"/>
        <circle id="Elipse_14" data-name="Elipse 14" cx="29.987" cy="29.987" r="29.987" transform="translate(220.403 179.922)" fill="#00327e"/>
        <rect id="Retângulo_20" data-name="Retângulo 20" width="53.976" height="148.435" transform="translate(0 82.839)" fill="#00327e"/>
        <path id="Caminho_29" data-name="Caminho 29" d="M427.88,60.278c-13.868-9.554-33.735-9.743-44.98-6.369-7.255,2.177-11.969,4.826-15.077,7.39l-5.915-7.39h-44.98V256.32H370.9V203.063a173.157,173.157,0,0,0,18.743,3.778s24.739,3.747,40.482-12.747,19.49-35.233,19.49-65.968S440.758,69.153,427.88,60.278Zm-32.611,70.1c-.373,15.365-.751,31.486-9,36.731-5,3.185-11.232,1.129-15.37-.985V96.451l6.747-3.936s11.245-7.12,15,3.747C395.669,105.029,395.642,115.006,395.269,130.375Z" transform="translate(-243.461 28.931)" fill="#00327e"/>
        <rect id="Retângulo_21" data-name="Retângulo 21" width="160.429" height="33.735" transform="translate(283.375 82.09)" fill="#00327e"/>
        <path id="Caminho_30" data-name="Caminho 30" d="M420.741,42.529l-46.478,9.747-6,33.735v114.7s-1.5,39.731,35.984,38.233l44.98-5.249-.189-39.542-15.554,4.309s-12.747,4.5-12.747-14.245Z" transform="translate(-63.9 -3.922)" fill="#00327e"/>
        <path id="Caminho_31" data-name="Caminho 31" d="M386.677,52.154,424.91,201.714h36.546L443.277,52.342Z" transform="translate(0.528 29.748)" fill="#00327e"/>
        <path id="Caminho_32" data-name="Caminho 32" d="M476.457,52.154,438.223,201.714H401.677L419.856,52.342Z" transform="translate(52.998 29.748)" fill="#00327e"/>
        <g id="Grupo_25" data-name="Grupo 25" transform="translate(51.264)">
          <path id="Caminho_33" data-name="Caminho 33" d="M325.373,65.4a141.923,141.923,0,0,1,38.809-5.425c77.906,0,141.355,62.954,142.228,140.662a44,44,0,0,1,4.71-.265,43.285,43.285,0,0,1,21.271,5.578c.027-1.232.09-2.46.09-3.7,0-92.8-75.495-168.3-168.3-168.3a167.552,167.552,0,0,0-52.19,8.326A38.156,38.156,0,0,1,325.373,65.4Z" transform="translate(-311.991 -33.946)" fill="#00327e"/>
        </g>
      </g>
      <g id="Grupo_2" data-name="Grupo 2" transform="translate(862.804 5367.574)">
        <g id="Grupo_4339" data-name="Grupo 4339" transform="translate(0 0)">
          <path id="Caminho_58" data-name="Caminho 58" d="M117.152,155.539H77.46V263.124H4.136V-41.038h119.7q54.106,0,84.605,24t30.5,67.821q0,31.72-12.847,52.588T185.88,137.175l63.506,122.812v3.137H170.84ZM77.46,99.135h46.376q20.89,0,31.44-11t10.55-30.681q0-19.685-10.654-30.889t-31.335-11.2H77.46ZM380.794,267.3q-52.017,0-84.187-31.022t-32.171-80.74V149.69q0-34.678,12.848-61.208a94.008,94.008,0,0,1,37.5-41.049q24.65-14.518,58.493-14.518,47.63,0,75.2,29.559t27.575,82.412v27.366H336.089q3.76,19.01,16.5,29.873T385.6,212.987q33.424,0,52.225-23.4L470,227.61q-13.161,18.175-37.289,28.933A126.01,126.01,0,0,1,380.794,267.3ZM372.856,87.228q-30.917,0-36.767,40.945h71.027v-5.431q.418-16.921-8.565-26.217T372.856,87.228Zm250.273,175.9q-3.76-6.893-6.685-20.263Q597.016,267.3,562.13,267.3q-31.962,0-54.315-19.324t-22.353-48.569q0-36.767,27.157-55.568t78.965-18.8h21.726V113.073q0-31.277-26.949-31.276-25.068,0-25.068,24.771h-70.4q0-32.758,27.888-53.206t71.131-20.448q43.243,0,68.311,21.1t25.7,57.866V211.943q.418,31.126,9.609,47.63v3.551Zm-44.078-45.959q13.161,0,21.83-5.64t12.43-12.743v-36.14H592.839q-36.767,0-36.767,33.006,0,9.609,6.476,15.563T579.051,217.165Zm209.537,45.959H717.979V-57.75h70.609ZM889.914,37.091l2.3,26.531q24.024-30.708,64.551-30.708,42.825,0,57.866,34.051,22.98-34.051,66.431-34.051,68.729,0,70.609,83.143V263.124H1081.06V120.444q0-17.339-5.849-25.277T1053.9,87.228q-20.891,0-31.127,18.592l.209,2.925V263.124H952.376V120.861q0-17.757-5.641-25.695t-21.517-7.938q-20.264,0-30.917,18.592v157.3H823.9V37.091Zm411.754,162.526q0-8.983-9.4-14.414t-35.722-11.281q-26.322-5.849-43.452-15.354t-26.113-23.084A55.122,55.122,0,0,1,1178,104.358q0-31.127,25.7-51.286t67.266-20.159q44.705,0,71.862,20.263t27.157,53.27H1299.37q0-27.157-28.62-27.157-11.072,0-18.592,6.163t-7.521,15.354q0,9.4,9.192,15.25t29.351,9.609a253.625,253.625,0,0,1,35.409,8.983q50.973,17.547,50.972,62.879,0,30.918-27.47,50.345T1270.96,267.3q-29.037,0-51.807-10.445t-35.514-28.411Q1170.9,210.48,1170.9,190.635h65.8q.418,15.667,10.445,22.875t25.7,7.207q14.414,0,21.621-5.849A18.711,18.711,0,0,0,1301.668,199.617Z" transform="translate(-4.136 175.822)" fill="#00327e"/>
          <path id="Exclusão_8" data-name="Exclusão 8" d="M174.848,250.031a36.183,36.183,0,0,1-9.579-71.1l-12.013-67.272c-1.642.135-3.261.2-4.8.2a55.429,55.429,0,0,1-25.517-6.135,56.655,56.655,0,0,1-19.418-16.368l-67.376,44.26a19.841,19.841,0,1,1-2.47-2.937l67.661-44.449a56.024,56.024,0,1,1,103.208-30.3,56.168,56.168,0,0,1-44.8,54.795l11.984,67.065c1.087-.088,2.142-.13,3.13-.13a36.188,36.188,0,1,1,0,72.377Zm0-59.218a23.03,23.03,0,1,0,23.094,23.03A23.088,23.088,0,0,0,174.848,190.813ZM19.792,131.595a13.161,13.161,0,1,0,13.195,13.158A13.192,13.192,0,0,0,19.792,131.595ZM148.453,13.158a42.771,42.771,0,1,0,42.893,42.767A42.876,42.876,0,0,0,148.453,13.158Z" transform="translate(1271.63)" fill="#00327e"/>
        </g>
      </g>
    </g>
  </g>
</svg>
